<svg xmlns="http://www.w3.org/2000/svg" id="ikbenok-wordmark" viewBox="0 0 437.3 210">
  <g transform="translate(0, 142.5)">
    <path d="M10-60.400Q7.900-60.400 6.350-61.850Q4.800-63.300 4.800-65.200Q4.800-67.100 6.350-68.500Q7.900-69.900 10-69.900Q12.200-69.900 13.650-68.500Q15.100-67.100 15.100-65.200Q15.100-63.300 13.650-61.850Q12.200-60.400 10-60.400M10 0Q8.200 0 7.050-0.950Q5.900-1.900 5.900-3L5.900-44.500Q5.900-45.800 7.050-46.600Q8.200-47.400 10-47.400Q11.700-47.400 12.950-46.600Q14.200-45.800 14.200-44.500L14.200-3Q14.200-1.900 12.950-0.950Q11.700 0 10 0M30 0Q28.300 0 27.150-0.950Q26-1.900 26-3L26-73.100Q26-74.400 27.150-75.200Q28.300-76 30-76Q31.800-76 33.050-75.200Q34.300-74.400 34.300-73.100L34.300-26.300L57.100-46.900Q58-47.600 58.900-47.600Q59.900-47.600 60.850-47.050Q61.800-46.500 62.450-45.600Q63.100-44.700 63.100-43.700Q63.100-43.200 62.900-42.650Q62.700-42.100 62.200-41.700L48.300-29.400L64.900-5.300Q65.400-4.600 65.400-3.800Q65.400-2.800 64.700-1.800Q64-0.800 62.950-0.200Q61.900 0.400 60.800 0.400Q59.400 0.400 58.500-0.900L42.600-24.200L34.300-16.800L34.300-3Q34.300-1.900 33.050-0.950Q31.800 0 30 0M114.200 0.800Q109.600 0.800 105.850-1.550Q102.100-3.900 100.500-7L100.500-3Q100.500-1.900 99.400-0.950Q98.300 0 96.600 0Q94.900 0 93.750-0.950Q92.600-1.900 92.600-3L92.600-73.100Q92.600-74.400 93.750-75.200Q94.900-76 96.600-76Q98.400-76 99.650-75.200Q100.900-74.400 100.900-73.100L100.900-40.400Q102.500-43.300 105.850-45.650Q109.200-48 114-48Q118.900-48 122.950-45.350Q127-42.700 129.450-38.400Q131.900-34.100 131.900-28.800L131.900-18.600Q131.900-13.600 129.450-9.150Q127-4.700 123-1.950Q119 0.800 114.200 0.800M112.200-6.700Q115.300-6.700 117.900-8.400Q120.500-10.100 122.050-12.900Q123.600-15.700 123.600-18.600L123.600-28.800Q123.600-31.700 122.050-34.400Q120.500-37.100 117.900-38.800Q115.300-40.500 112.100-40.500Q109.400-40.500 106.800-39.050Q104.200-37.600 102.550-35.050Q100.900-32.500 100.900-28.800L100.900-15.900Q100.900-14.600 102.400-12.400Q103.900-10.200 106.500-8.450Q109.100-6.700 112.200-6.700M162.400 0.800Q155.900 0.800 150.900-1.650Q145.900-4.100 143-8.450Q140.100-12.800 140.100-18.600L140.100-29.100Q140.100-34.200 142.850-38.500Q145.600-42.800 150.100-45.400Q154.600-48 160-48Q165.200-48 169.550-45.600Q173.900-43.200 176.550-39.100Q179.200-35 179.200-29.600Q179.200-25.600 177.900-23.850Q176.600-22.100 174.600-21.700Q172.600-21.300 170.400-21.300L148.400-21.300L148.400-18.300Q148.400-12.700 152.400-9.450Q156.400-6.200 162.700-6.200Q166.400-6.200 168.600-7.200Q170.800-8.200 172.200-9.150Q173.600-10.100 174.700-10.100Q175.800-10.100 176.550-9.450Q177.300-8.800 177.700-7.900Q178.100-7 178.100-6.300Q178.100-5 176.200-3.350Q174.300-1.700 170.750-0.450Q167.200 0.800 162.400 0.800M148.400-30.500L148.400-26.900L166.900-26.900Q169.600-26.900 170.450-27.550Q171.300-28.200 171.300-30.100Q171.300-33.100 169.850-35.650Q168.400-38.200 165.800-39.800Q163.200-41.400 159.900-41.400Q156.800-41.400 154.200-39.950Q151.600-38.500 150-36Q148.400-33.500 148.400-30.500M192.500 0Q190.700 0 189.550-0.950Q188.400-1.900 188.400-3L188.400-44.500Q188.400-45.800 189.550-46.600Q190.700-47.400 192.500-47.400Q194.100-47.400 195.200-46.600Q196.300-45.800 196.300-44.500L196.300-40.400Q197.900-43.300 201.300-45.650Q204.700-48 209.700-48Q214.500-48 218.500-45.350Q222.500-42.700 224.900-38.400Q227.300-34.100 227.300-28.800L227.300-3Q227.300-1.500 226-0.750Q224.700 0 223.100 0Q221.600 0 220.300-0.750Q219-1.500 219-3L219-28.800Q219-31.700 217.450-34.400Q215.900-37.100 213.300-38.800Q210.700-40.500 207.600-40.500Q204.900-40.500 202.400-39.050Q199.900-37.600 198.300-35.050Q196.700-32.500 196.700-28.800L196.700-3Q196.700-1.900 195.450-0.950Q194.200 0 192.500 0" fill="var(--navy)"/>
  </g>
  <circle cx="342.3" cy="115" r="95" fill="var(--sage-deep)"/>
  <circle cx="342.3" cy="115" r="86" fill="var(--cream)"/>
  <circle cx="342.3" cy="115" r="77" fill="var(--sage-deep)"/>
  <g transform="translate(291.7, 142.5)">
    <path d="M24.800 0.900Q19 0.900 14.100-1.950Q9.200-4.800 6.200-9.500Q3.200-14.200 3.200-19.600L3.200-27.800Q3.200-33.200 6.100-37.850Q9-42.500 13.950-45.300Q18.900-48.100 24.800-48.100Q30.700-48.100 35.650-45.350Q40.600-42.600 43.550-38Q46.500-33.400 46.500-27.800L46.500-19.600Q46.500-14.300 43.500-9.600Q40.500-4.900 35.550-2Q30.600 0.900 24.800 0.900M24.800-10.400Q27.200-10.400 29.200-11.700Q31.200-13 32.400-15.150Q33.600-17.300 33.600-19.600L33.600-27.800Q33.600-30.100 32.400-32.100Q31.200-34.100 29.250-35.450Q27.300-36.800 24.800-36.800Q22.400-36.800 20.400-35.500Q18.400-34.200 17.250-32.150Q16.100-30.100 16.100-27.800L16.100-19.600Q16.100-17.300 17.250-15.150Q18.400-13 20.400-11.700Q22.400-10.400 24.800-10.400M61.100 0Q58.400 0 56.600-1.300Q54.800-2.600 54.800-4.100L54.800-71.200Q54.800-73 56.600-74.100Q58.400-75.200 61.100-75.200Q63.900-75.200 65.800-74.100Q67.700-73 67.700-71.200L67.700-29.300L86.600-47Q87.600-48 89.100-48Q90.600-48 92.050-47.050Q93.500-46.100 94.450-44.700Q95.400-43.300 95.400-41.800Q95.400-41.200 95.150-40.550Q94.900-39.900 94.300-39.400L82.500-28.700L97.300-7.700Q98-6.600 98-5.600Q98-4.100 96.800-2.600Q95.600-1.100 93.900-0.150Q92.200 0.800 90.600 0.800Q88.600 0.800 87.400-0.900L74-20.800L67.700-15.100L67.700-4.100Q67.700-2.600 65.800-1.300Q63.900 0 61.100 0" fill="var(--cream)"/>
  </g>
</svg>
