<svg xmlns="http://www.w3.org/2000/svg" id="ok-mark" viewBox="0 0 100 100">
  <circle cx="50" cy="50" r="50" fill="#4f6a4c"/>
  <circle cx="50" cy="50" r="45.26" fill="#F5EFE3"/>
  <circle cx="50" cy="50" r="40.53" fill="#4f6a4c"/>
  <g transform="translate(23.3684, 64.7368) scale(0.526316)">
    <path d="M24.800 0.900Q19 0.900 14.100-1.950Q9.200-4.800 6.200-9.500Q3.200-14.200 3.200-19.600L3.200-27.800Q3.200-33.200 6.100-37.850Q9-42.500 13.950-45.300Q18.900-48.100 24.800-48.100Q30.700-48.100 35.650-45.350Q40.600-42.600 43.550-38Q46.500-33.400 46.500-27.800L46.500-19.600Q46.500-14.300 43.500-9.600Q40.500-4.900 35.550-2Q30.600 0.900 24.800 0.900M24.800-10.400Q27.200-10.400 29.200-11.700Q31.200-13 32.400-15.150Q33.600-17.300 33.600-19.600L33.600-27.800Q33.600-30.100 32.400-32.100Q31.200-34.100 29.250-35.450Q27.300-36.800 24.800-36.800Q22.400-36.800 20.400-35.500Q18.400-34.200 17.250-32.150Q16.100-30.100 16.100-27.800L16.100-19.600Q16.100-17.300 17.250-15.150Q18.400-13 20.400-11.700Q22.400-10.400 24.800-10.400M61.100 0Q58.400 0 56.600-1.300Q54.800-2.600 54.800-4.100L54.800-71.200Q54.800-73 56.600-74.100Q58.400-75.200 61.100-75.200Q63.900-75.200 65.800-74.100Q67.700-73 67.700-71.200L67.700-29.300L86.600-47Q87.600-48 89.100-48Q90.600-48 92.050-47.050Q93.500-46.100 94.450-44.700Q95.400-43.300 95.400-41.800Q95.400-41.200 95.150-40.550Q94.900-39.900 94.300-39.400L82.500-28.700L97.300-7.700Q98-6.600 98-5.600Q98-4.100 96.800-2.600Q95.600-1.100 93.900-0.150Q92.200 0.800 90.600 0.800Q88.600 0.800 87.400-0.900L74-20.800L67.700-15.100L67.700-4.100Q67.700-2.600 65.800-1.300Q63.900 0 61.100 0" fill="#F5EFE3"/>
  </g>
</svg>
